<svg xmlns="http://www.w3.org/2000/svg" width="508" height="322.5" viewBox="0 0 1016 645"><g><g><path d="M448.83 86.806h1.818v413.768h4.548l-5.457 19.075-5.456-19.075h4.546z"/></g><g><path d="M373.522 81.638l1.114 1.438L22.969 358.848l2.787 3.6-18.429 7.36 11.75-15.989 2.778 3.59z"/></g><g><path d="M495.217 86.806h1.819v122.777h4.547l-5.456 19.075-5.457-19.075h4.547z"/></g><g><path d="M495.217 360.517h1.819v17.295h4.547l-5.456 19.076-5.457-19.076h4.547z"/></g><g><path d="M495.217 457.188h1.819v44.295h4.547l-5.456 19.076-5.457-19.076h4.547z"/></g><g><path d="M4.693 428.095h1.82v27.295h4.547l-5.456 19.075L.147 455.39h4.546z"/></g><g><path d="M472.478 597.86h1.819v27.295h4.547l-5.456 19.075-5.457-19.075h4.547z"/></g><g><path d="M427.91 644.236h-1.82V616.94h-4.546L427 597.865l5.457 19.076h-4.548z"/></g><g><path d="M1009.675 138.64h1.82v27.294h4.547l-5.457 19.076-5.456-19.076h4.546z"/></g><g><path d="M989.107 185.016h-1.82V157.72h-4.546l5.457-19.076 5.456 19.076h-4.547z"/></g><g><path d="M402.442 86.806h1.819v122.777h4.547l-5.456 19.075-5.457-19.075h4.547z"/></g><g><path d="M402.442 401.707h1.819v99.776h4.547l-5.456 19.076-5.457-19.076h4.547z"/></g><g><path d="M94.846 553.301H217.65v-4.546l19.08 5.455-19.08 5.455v-4.545H94.846z"/></g><g><path d="M579.803 1.995l.264-1.8 206.926 30.306.658-4.499 18.09 8.158-19.67 2.638.659-4.498z"/></g><g><path d="M62.449 442.535l.797-1.635 158.826 77.185 1.995-4.088 14.755 13.268-19.54-3.462 1.992-4.084z"/></g><g><path d="M799.011 50.459l-.263 1.788L592.161 22.13l-.657 4.47-18.06-8.107 19.636-2.621-.657 4.47z"/></g><g><path d="M313.964.423l.263 1.791L107.63 32.387l.657 4.478-19.638-2.626 18.061-8.122.657 4.479z"/></g><g><path d="M95.63 52.247l-.262-1.78L301.627 20.48l-.656-4.45 19.605 2.61-18.03 8.072-.657-4.451z"/></g><g><path d="M343.635 60.8l.923 1.558L94.806 209.533l2.306 3.894-19.166 5.016 13.63-14.364 2.308 3.896z"/></g><g><path d="M90.557 232.688l-.919-1.548 250.19-147.104-2.294-3.868 19.13-5.019-13.621 14.306-2.296-3.871z"/></g><g><path d="M536.4 61.988l.92-1.558 249.422 147.151 2.304-3.895 13.612 14.361-19.14-5.015 2.302-3.893z"/></g><g><path d="M790.981 230.742l-.917 1.548L540.206 85.21l-2.293 3.87-13.604-14.302 19.105 5.017-2.291 3.868z"/></g><g/><g/></g></svg>