<svg xmlns="http://www.w3.org/2000/svg" width="54" height="54" viewBox="0 0 54 54"><defs><radialGradient id="j7oda" cx="24" cy="17" r="22.8" gradientUnits="userSpaceOnUse"><stop offset="0" stop-color="#de791b"/><stop offset=".01" stop-color="#de791b"/><stop offset="1" stop-color="#cf1437"/></radialGradient></defs><g><g><path fill="#f78b1f" d="M27 0c14.912 0 27 12.088 27 27S41.912 54 27 54 0 41.912 0 27 12.088 0 27 0z"/><path fill="none" stroke="#000" stroke-linecap="round" stroke-miterlimit="50" stroke-width="2" d="M27 0c14.912 0 27 12.088 27 27S41.912 54 27 54 0 41.912 0 27 12.088 0 27 0z"/></g><g><path fill="#f78b1f" d="M27 6.75c11.184 0 20.25 9.066 20.25 20.25S38.184 47.25 27 47.25 6.75 38.184 6.75 27 15.816 6.75 27 6.75z"/><path fill="none" stroke="#000" stroke-linecap="round" stroke-miterlimit="50" stroke-width="2" d="M27 6.75c11.184 0 20.25 9.066 20.25 20.25S38.184 47.25 27 47.25 6.75 38.184 6.75 27 15.816 6.75 27 6.75z"/></g><g opacity=".62"><path fill="#f78b1f" d="M27 17c6.075 0 11 4.925 11 11s-4.925 11-11 11-11-4.925-11-11 4.925-11 11-11z"/><path fill="url(#j7oda)" d="M27 17c6.075 0 11 4.925 11 11s-4.925 11-11 11-11-4.925-11-11 4.925-11 11-11z"/></g></g></svg>