<svg xmlns="http://www.w3.org/2000/svg" width="460.5" height="208" viewBox="0 0 921 416"><g><g><g><path fill="none" stroke="#fff" stroke-linecap="round" stroke-miterlimit="50" stroke-width="2" d="M70.152 69v0h772.696v282H70.152v0z"/></g><g><path d="M.595 228.543v-1.789l52.973-.186.002-4.472 19.095 5.303-19.101 5.43.003-4.472z"/><path fill="#fff" d="M.595 228.543v-1.789l52.973-.186.002-4.472 19.095 5.303-19.101 5.43.003-4.472z"/></g><g><path d="M921 226.4l-.002 1.831-59.919.191-.003 4.575-19.085-5.425 19.092-5.558-.003 4.577z"/><path fill="#fff" d="M921 226.4l-.002 1.831-59.919.191-.003 4.575-19.085-5.425 19.092-5.558-.003 4.577z"/></g><g><path d="M768.4 0l1.831.002.19 48.919 4.576.003-5.425 19.085-5.558-19.092 4.577.003z"/><path fill="#fff" d="M768.4 0l1.831.002.19 48.919 4.576.003-5.425 19.085-5.558-19.092 4.577.003z"/></g><g><path d="M465.4 0l1.831.002.19 48.919 4.576.003-5.425 19.085-5.558-19.092 4.577.003z"/><path fill="#fff" d="M465.4 0l1.831.002.19 48.919 4.576.003-5.425 19.085-5.558-19.092 4.577.003z"/></g><g><path d="M149.4 0l1.831.002.19 48.919 4.576.003-5.425 19.085-5.558-19.092 4.577.003z"/><path fill="#fff" d="M149.4 0l1.831.002.19 48.919 4.576.003-5.425 19.085-5.558-19.092 4.577.003z"/></g><g><path d="M151.6 415l-1.831-.002-.19-45.919-4.576-.003 5.425-19.085 5.558 19.092-4.576-.003z"/><path fill="#fff" d="M151.6 415l-1.831-.002-.19-45.919-4.576-.003 5.425-19.085 5.558 19.092-4.576-.003z"/></g><g><path d="M466.6 416l-1.831-.002-.19-45.919-4.576-.003 5.425-19.085 5.558 19.092-4.576-.003z"/><path fill="#fff" d="M466.6 416l-1.831-.002-.19-45.919-4.576-.003 5.425-19.085 5.558 19.092-4.576-.003z"/></g><g><path d="M770.6 416l-1.831-.002-.19-45.919-4.576-.003 5.425-19.085 5.558 19.092-4.576-.003z"/><path fill="#fff" d="M770.6 416l-1.831-.002-.19-45.919-4.576-.003 5.425-19.085 5.558 19.092-4.576-.003z"/></g></g></g></svg>