<svg xmlns="http://www.w3.org/2000/svg" width="405.5" height="200" viewBox="0 0 811 400"><g><g/><g><g><path d="M314.325.34l1.206 1.335L15.17 253.695l2.99 3.311-17.705 8.808 10.47-16.817 3.039 3.364z"/><path fill="#fff" d="M314.325.34l1.206 1.335L15.17 253.695l2.99 3.311-17.705 8.808 10.47-16.817 3.039 3.364z"/></g><g><path d="M495.47 1.675L496.674.34l300.361 252.02 3.04-3.363 10.47 16.817-17.707-8.808 2.991-3.31z"/><path fill="#fff" d="M495.47 1.675L496.674.34l300.361 252.02 3.04-3.363 10.47 16.817-17.707-8.808 2.991-3.31z"/></g><g><path d="M400.932 63.553l1.8.018-.996 114.618 4.495.044-5.519 18.99-5.275-19.095 4.5.044z"/><path fill="#fff" d="M400.932 63.553l1.8.018-.996 114.618 4.495.044-5.519 18.99-5.275-19.095 4.5.044z"/></g><g><path d="M9.99 312.394l.018-1.836 101.914 1.014.043-4.584 19.04 5.63L111.86 318l.044-4.592z"/><path fill="#fff" d="M9.99 312.394l.018-1.836 101.914 1.014.043-4.584 19.04 5.63L111.86 318l.044-4.592z"/></g><g><path d="M794.992 310.558l.017 1.836-112.913 1.015.044 4.591-19.144-5.382 19.039-5.63.043 4.585z"/><path fill="#fff" d="M794.992 310.558l.017 1.836-112.913 1.015.044 4.591-19.144-5.382 19.039-5.63.043 4.585z"/></g></g><g><path fill="none" stroke="#fff" stroke-linecap="round" stroke-miterlimit="50" stroke-width="2" d="M152.804 218.803v0h491.392v179.394H152.804v0z"/></g></g></svg>